<?xml version="1.0" standalone="no"?>
<!DOCTYPE svg PUBLIC "-//W3C//DTD SVG 20010904//EN"
 "http://www.w3.org/TR/2001/REC-SVG-20010904/DTD/svg10.dtd">
<svg version="1.0" xmlns="http://www.w3.org/2000/svg"
 width="500.000000pt" height="500.000000pt" viewBox="0 0 500.000000 500.000000"
 preserveAspectRatio="xMidYMid meet">

<g transform="translate(0.000000,500.000000) scale(0.100000,-0.100000)"
fill="#000000" stroke="none">
<path d="M0 2500 l0 -2500 2500 0 2500 0 0 2500 0 2500 -2500 0 -2500 0 0
-2500z m1114 1360 c48 -175 174 -533 309 -875 41 -104 84 -215 96 -245 l22
-55 -46 50 c-151 166 -299 397 -391 610 -67 156 -84 218 -84 315 0 104 49 297
70 273 4 -4 15 -37 24 -73z m7 -870 c324 -423 319 -417 319 -425 0 -9 -486
433 -552 502 -66 70 -83 118 -73 206 8 79 14 92 30 75 7 -7 131 -168 276 -358z
m-68 -305 c174 -110 315 -201 313 -202 -6 -6 -486 156 -533 179 -39 20 -53 35
-75 79 -28 56 -49 155 -31 148 6 -2 152 -94 326 -204z m1200 75 c50 -56 27
-135 -47 -160 -69 -22 -136 23 -136 92 0 49 13 73 48 93 42 24 101 13 135 -25z
m920 0 c47 -53 32 -121 -35 -156 -42 -22 -90 -11 -122 27 -88 104 66 230 157
129z m-1370 23 c-53 -4 -53 -4 -53 -39 0 -33 1 -34 40 -34 22 0 40 -4 40 -10
0 -5 -18 -10 -40 -10 -40 0 -40 0 -40 -39 l0 -40 53 -4 c49 -3 48 -3 -15 -5
l-68 -2 0 95 0 95 68 -2 c63 -2 64 -2 15 -5z m122 -64 c16 -38 32 -72 36 -74
3 -3 19 29 35 70 16 41 33 75 37 75 5 0 7 -6 4 -12 -45 -115 -74 -178 -83
-178 -5 0 -24 35 -42 78 -47 115 -46 112 -30 112 9 0 26 -29 43 -71z m435 -18
l0 -90 53 -4 c49 -3 48 -3 -15 -5 l-68 -2 0 95 c0 78 3 95 15 95 12 0 15 -17
15 -89z m150 21 c0 -83 16 -112 64 -112 48 0 56 14 56 102 0 45 4 78 10 78 14
0 13 -123 -1 -154 -22 -47 -88 -56 -131 -18 -14 12 -18 31 -18 94 0 45 4 78
10 78 6 0 10 -29 10 -68z m308 61 l-38 -4 0 -90 c0 -72 -3 -89 -15 -89 -12 0
-15 17 -15 89 l0 90 -42 4 c-24 2 0 4 52 4 52 0 78 -2 58 -4z m112 -88 c0 -78
-3 -95 -15 -95 -12 0 -15 17 -15 95 0 78 3 95 15 95 12 0 15 -17 15 -95z m405
25 l70 -71 6 73 5 73 2 -100 2 -99 -73 72 c-40 39 -76 72 -79 72 -4 0 -9 -33
-11 -72 -3 -67 -3 -64 -5 25 -1 53 1 97 6 97 4 0 39 -32 77 -70z m280 -18 l0
-87 55 -6 55 -6 -67 -1 -68 -2 0 95 c0 69 3 95 13 95 9 0 12 -24 12 -88z m185
-7 c0 -78 -3 -95 -15 -95 -12 0 -15 17 -15 95 0 78 3 95 15 95 12 0 15 -17 15
-95z m153 88 c-53 -4 -53 -4 -53 -39 0 -34 0 -34 46 -34 27 0 43 -4 39 -10 -3
-5 -24 -10 -46 -10 l-39 0 0 -45 c0 -29 -4 -45 -12 -45 -10 0 -13 26 -13 95
l0 95 65 -2 c63 -2 64 -2 13 -5z m170 0 c-53 -4 -53 -4 -53 -39 0 -34 0 -34
46 -34 27 0 43 -4 39 -10 -3 -5 -24 -10 -46 -10 -39 0 -39 0 -39 -39 l0 -40
53 -4 52 -3 -62 -2 -63 -2 0 95 0 95 63 -2 62 -2 -52 -3z m-2716 -446 c23 -10
-11 -12 -212 -15 -295 -4 -315 -1 -367 46 -31 28 -78 97 -78 115 0 6 628 -133
657 -146z m5 -163 c-112 -67 -238 -97 -318 -75 -22 6 -60 28 -84 48 l-44 38
69 6 c39 3 149 6 245 7 l175 2 -43 -26z m118 -145 c-91 -82 -136 -104 -207
-100 -22 1 -93 55 -83 64 10 8 335 94 340 90 3 -3 -20 -27 -50 -54z m133 -106
c-53 -77 -88 -98 -142 -83 -22 6 -43 15 -46 19 -5 9 216 132 224 125 2 -2 -14
-29 -36 -61z m177 -28 c0 -59 -32 -95 -85 -95 -19 0 -35 3 -35 7 0 5 109 128
118 132 1 0 2 -19 2 -44z m303 -15 c6 -16 14 -30 17 -30 3 0 11 14 17 30 18
47 34 37 32 -20 -2 -53 -18 -59 -20 -7 l-1 32 -10 -32 c-13 -41 -23 -42 -37
-3 -13 39 -25 39 -19 0 3 -17 1 -33 -4 -36 -4 -3 -8 18 -8 45 0 57 16 67 33
21z m170 23 c-16 -6 -17 -69 -3 -78 29 -18 54 47 28 73 -9 9 -9 12 0 12 15 0
31 -40 24 -60 -5 -16 -31 -40 -43 -40 -16 0 -39 32 -39 54 0 24 17 46 35 45 5
0 4 -3 -2 -6z m173 0 c-15 -4 -18 -12 -14 -47 3 -28 1 -43 -6 -43 -7 0 -10 17
-7 45 3 38 1 44 -13 39 -9 -4 -16 -2 -16 3 0 6 17 9 38 9 20 -1 29 -3 18 -6z
m106 -35 c-6 -61 -17 -66 -17 -8 0 28 5 50 10 50 6 0 9 -18 7 -42z m95 36 c-3
-3 0 -20 6 -37 l11 -32 12 30 c7 17 10 33 7 38 -2 4 1 7 6 7 6 0 11 -2 11 -5
0 -12 -33 -85 -39 -85 -3 0 -13 20 -22 45 -15 40 -15 45 -1 45 8 0 13 -3 9 -6z
m182 -31 c7 -21 15 -45 17 -53 3 -8 -4 -4 -14 10 -11 13 -19 27 -17 30 2 3 0
12 -6 20 -6 11 -9 11 -10 3 -3 -23 -4 -28 -16 -48 -7 -11 -13 -17 -13 -13 0
15 32 88 40 88 4 0 12 -17 19 -37z m126 -11 c0 -27 -4 -49 -10 -49 -6 0 -8 19
-6 45 3 38 1 44 -13 39 -9 -4 -16 -2 -16 3 0 6 10 10 23 10 20 0 22 -5 22 -48z
m120 0 c0 -27 -5 -49 -10 -49 -6 0 -10 22 -10 49 0 26 5 48 10 48 6 0 10 -22
10 -48z m148 27 c5 -9 7 -27 4 -41 -14 -54 -77 -41 -77 16 0 18 3 36 7 40 12
12 55 2 66 -15z m120 -11 l28 -33 -4 33 c-2 17 0 32 5 32 4 0 8 -20 8 -45 0
-53 -11 -57 -39 -12 l-21 32 0 -32 c0 -17 -3 -34 -8 -36 -4 -3 -7 17 -7 44 0
27 2 49 5 49 3 0 18 -14 33 -32z m-1407 -44 c-6 -22 -62 -61 -73 -51 -2 3 13
31 34 63 32 49 38 54 41 35 2 -13 1 -34 -2 -47z m156 -149 c-4 -47 10 -59 37
-32 10 10 11 9 5 -6 -4 -12 -15 -16 -35 -15 -28 2 -29 5 -29 50 0 32 4 48 13
48 8 0 11 -14 9 -45z m182 29 c20 -52 -12 -96 -54 -74 -23 12 -27 59 -8 78 17
17 55 15 62 -4z m119 -16 l28 -33 -4 33 c-2 17 0 32 5 32 4 0 8 -20 8 -45 0
-53 -11 -57 -39 -12 l-21 32 0 -37 c0 -21 -3 -38 -7 -38 -9 0 -11 100 -3 100
3 0 18 -14 33 -32z m187 24 c0 -4 -12 -8 -27 -7 -24 0 -28 -4 -31 -31 -2 -22
2 -33 13 -38 22 -8 36 1 28 19 -3 8 0 15 6 15 20 0 12 -38 -9 -45 -38 -12 -71
36 -50 75 7 13 21 20 40 20 17 0 30 -4 30 -8z m134 -1 c3 -4 -6 -6 -19 -3 -18
3 -25 0 -25 -12 0 -9 8 -17 18 -17 16 -1 16 -2 -1 -6 -26 -7 -17 -38 10 -37
12 0 20 -3 17 -8 -3 -4 -17 -8 -32 -8 -26 0 -27 2 -27 50 0 48 1 50 27 50 15
0 29 -4 32 -9z m93 3 c-3 -3 0 -20 6 -37 l11 -32 12 30 c7 17 10 33 7 38 -2 4
1 7 6 7 6 0 11 -2 11 -5 0 -12 -33 -85 -39 -85 -3 0 -13 20 -22 45 -15 40 -15
45 -1 45 8 0 13 -3 9 -6z m148 -44 c0 -27 -5 -50 -10 -50 -6 0 -10 22 -10 50
0 27 5 50 10 50 6 0 10 -22 10 -50z m85 46 c0 -3 -4 -8 -10 -11 -5 -3 -10 -1
-10 4 0 6 5 11 10 11 6 0 10 -2 10 -4z m60 -6 c0 -5 -7 -7 -15 -4 -12 5 -15
-3 -15 -40 0 -25 -4 -46 -10 -46 -5 0 -10 23 -10 50 0 47 2 50 25 50 14 0 25
-4 25 -10z m88 -12 l11 -23 7 23 c3 12 10 22 15 22 13 0 11 -7 -7 -35 -9 -13
-13 -32 -10 -43 4 -12 1 -19 -7 -19 -9 0 -12 7 -9 19 2 10 -3 29 -12 43 -18
27 -20 35 -8 35 5 0 14 -10 20 -22z m-1096 -203 c-4 -47 10 -59 37 -32 10 10
11 9 6 -5 -5 -12 -18 -18 -36 -18 -28 0 -29 2 -29 50 0 33 4 50 13 50 8 0 11
-14 9 -45z m133 -5 c0 -28 -4 -50 -10 -50 -5 0 -10 23 -10 50 0 28 5 50 10 50
6 0 10 -23 10 -50z m139 41 c3 -4 -6 -6 -20 -3 -24 4 -24 3 -20 -42 3 -30 0
-46 -7 -46 -8 0 -12 19 -12 50 0 48 1 50 27 50 15 0 29 -4 32 -9z m130 0 c3
-4 -6 -6 -19 -3 -18 3 -25 0 -25 -12 0 -9 8 -17 18 -17 16 -1 16 -2 0 -6 -10
-2 -18 -14 -18 -25 0 -16 5 -19 25 -16 13 3 22 1 19 -3 -3 -5 -17 -9 -32 -9
-26 0 -27 2 -27 50 0 48 1 50 27 50 15 0 29 -4 32 -9z m120 0 c4 -5 -3 -7 -14
-4 -26 7 -26 -13 0 -29 24 -15 26 -43 5 -52 -19 -7 -45 3 -45 16 0 6 7 5 15
-2 12 -10 19 -10 27 -2 9 9 5 17 -15 32 -15 12 -24 27 -20 35 6 16 39 20 47 6z
m146 -1 c0 -5 -7 -7 -16 -3 -14 5 -16 -1 -13 -40 3 -34 0 -47 -9 -47 -7 0 -12
6 -11 13 1 6 1 27 0 46 -1 25 -5 32 -16 27 -8 -3 -15 -1 -15 4 0 6 18 10 40
10 22 0 40 -4 40 -10z m85 -10 c10 -32 32 -22 26 13 0 4 4 7 9 7 14 0 12 -12
-6 -38 -9 -13 -13 -31 -9 -42 4 -14 2 -20 -8 -20 -10 0 -13 7 -10 19 3 10 -3
33 -11 50 -9 17 -12 31 -7 31 5 0 13 -9 16 -20z m137 -25 c-4 -47 9 -59 37
-32 11 10 13 9 9 -3 -3 -8 -18 -16 -34 -18 -29 -3 -29 -2 -29 48 0 27 5 50 10
50 6 0 9 -19 7 -45z m178 36 c0 -5 -9 -7 -20 -4 -14 4 -20 0 -20 -11 0 -9 6
-16 13 -17 10 0 10 -2 0 -6 -7 -2 -13 -14 -13 -25 0 -15 5 -19 20 -15 11 3 20
1 20 -4 0 -5 -15 -9 -32 -9 -33 0 -33 0 -33 50 0 50 0 50 33 50 17 0 32 -4 32
-9z"/>
<path d="M2122 2767 c-25 -29 -33 -69 -21 -104 12 -38 34 -53 77 -53 66 0 99
101 49 148 -26 25 -88 30 -105 9z"/>
<path d="M3040 2760 c-14 -14 -20 -33 -20 -65 0 -56 25 -85 74 -85 37 0 62 19
77 58 12 31 -5 88 -31 102 -31 16 -78 12 -100 -10z"/>
<path d="M3207 1893 c-13 -12 -7 -50 9 -64 14 -11 18 -10 30 6 8 11 12 26 9
33 -3 8 -5 18 -5 23 0 10 -33 12 -43 2z"/>
<path d="M2255 1701 c-6 -21 9 -61 24 -61 16 0 33 29 29 52 -4 31 -44 37 -53
9z"/>
</g>
</svg>
