<?xml version="1.0" standalone="no"?>
<!DOCTYPE svg PUBLIC "-//W3C//DTD SVG 20010904//EN"
 "http://www.w3.org/TR/2001/REC-SVG-20010904/DTD/svg10.dtd">
<svg version="1.0" xmlns="http://www.w3.org/2000/svg"
 width="250.000000pt" height="250.000000pt" viewBox="0 0 250.000000 250.000000"
 preserveAspectRatio="xMidYMid meet">

<g transform="translate(0.000000,250.000000) scale(0.100000,-0.100000)"
fill="#000000" stroke="none">
<path d="M0 1250 l0 -1250 1250 0 1250 0 0 1250 0 1250 -1250 0 -1250 0 0
-1250z m656 382 c36 -96 76 -199 89 -230 l25 -57 -36 40 c-108 122 -208 312
-220 420 -4 36 -1 70 11 111 l17 59 25 -85 c14 -47 54 -163 89 -258z m-84
-152 c73 -96 138 -182 143 -190 10 -16 -218 190 -272 246 -29 30 -33 40 -33
91 0 69 -15 82 162 -147z m-63 -127 c76 -49 147 -93 158 -100 10 -7 -45 9
-121 35 -106 36 -144 53 -157 72 -17 25 -34 80 -25 80 3 0 68 -39 145 -87z
m391 38 c-19 -5 -25 -14 -26 -43 -3 -33 0 -37 24 -41 24 -4 24 -4 -5 -6 l-33
-1 0 50 c0 50 0 50 33 49 29 -1 30 -2 7 -8z m82 -61 c3 0 11 14 17 30 5 17 12
30 15 30 3 0 -2 -20 -12 -45 -9 -25 -19 -45 -22 -45 -10 0 -40 69 -39 88 0 9
8 0 17 -20 10 -21 20 -38 24 -38z m140 53 c32 -28 17 -84 -21 -82 -11 0 -12 2
-3 6 38 15 33 83 -6 83 -40 0 -58 -59 -24 -79 16 -10 16 -10 -1 -11 -9 0 -22
11 -29 25 -24 52 41 97 84 58z m86 -76 c21 -3 19 -4 -10 -6 l-38 -1 0 43 c0
59 14 70 18 14 3 -41 6 -46 30 -50z m52 48 c0 -28 5 -45 12 -45 6 0 8 -3 5 -6
-4 -4 -13 -1 -22 6 -17 14 -21 90 -5 90 6 0 10 -20 10 -45z m148 38 c-14 -3
-18 -15 -18 -49 0 -24 -4 -44 -10 -44 -5 0 -10 20 -10 44 0 34 -4 46 -17 49
-10 3 2 5 27 5 25 0 37 -2 28 -5z m56 -47 c1 -25 -2 -46 -6 -46 -4 0 -8 23 -8
52 0 62 11 57 14 -6z m120 38 c29 -29 14 -84 -22 -84 -9 0 -6 7 9 19 21 16 22
22 11 45 -19 43 -72 28 -72 -21 0 -12 8 -27 18 -32 9 -6 13 -11 8 -11 -14 0
-46 31 -46 44 0 6 7 22 16 34 18 26 56 29 78 6z m254 -77 c21 -3 19 -4 -10 -6
l-38 -1 0 43 c0 59 14 70 18 14 3 -41 6 -46 30 -50z m62 43 c0 -27 -4 -50 -10
-50 -11 0 -14 83 -3 93 12 12 13 8 13 -43z m77 43 c-23 -4 -28 -9 -24 -26 2
-12 1 -33 -3 -47 -6 -19 -8 -13 -9 28 l-1 52 33 -1 c31 -2 31 -2 4 -6z m86 0
c-19 -4 -23 -11 -23 -43 0 -32 4 -39 23 -43 16 -3 13 -5 -10 -6 -32 -1 -33 0
-33 42 0 51 5 57 39 56 24 -2 24 -2 4 -6z m-390 -39 c21 -19 37 -40 35 -45 -2
-5 -23 11 -48 36 -52 53 -42 60 13 9z m34 -1 c-3 -10 -5 -4 -5 12 0 17 2 24 5
18 2 -7 2 -21 0 -30z m-80 -40 c-3 -10 -5 -2 -5 17 0 19 2 27 5 18 2 -10 2
-26 0 -35z m-312 -2 c-3 -6 -11 -11 -16 -11 -5 0 -4 6 3 14 14 16 24 13 13 -3z
m-772 -105 c87 -19 162 -37 165 -41 4 -4 -58 -5 -136 -3 -143 3 -144 3 -168
31 -20 24 -31 47 -21 47 1 0 73 -15 160 -34z m132 -132 c-58 -28 -130 -31
-163 -8 -12 8 -22 19 -22 25 0 5 50 9 118 8 l117 -1 -50 -24z m85 -63 c-56
-48 -85 -57 -117 -35 -15 9 -22 19 -16 21 45 15 141 42 153 42 8 1 -1 -12 -20
-28z m68 -53 c-27 -35 -48 -44 -76 -33 -12 4 -4 13 33 35 65 38 73 37 43 -2z
m82 -44 c-7 -7 -21 -14 -32 -14 -18 0 -17 3 9 33 24 28 29 30 31 14 2 -10 -2
-25 -8 -33z m390 36 c0 -5 -5 -10 -11 -10 -5 0 -7 5 -4 10 3 6 8 10 11 10 2 0
4 -4 4 -10z m60 -34 c0 -6 -7 -2 -15 8 -8 11 -15 25 -15 30 0 6 7 2 15 -8 8
-11 15 -25 15 -30z m138 8 c-3 -14 -5 -12 -10 9 -3 19 -2 25 4 19 6 -6 8 -18
6 -28z m59 -1 c-3 -10 -5 -4 -5 12 0 17 2 24 5 18 2 -7 2 -21 0 -30z m153 -9
c0 -4 -9 1 -20 11 -11 10 -20 23 -20 28 0 6 9 1 20 -11 11 -12 20 -24 20 -28z
m-730 -9 c-22 -27 -31 -15 -13 16 13 22 19 26 21 14 2 -9 -2 -22 -8 -30z m100
10 c0 -5 -5 -3 -10 5 -5 8 -10 20 -10 25 0 6 5 3 10 -5 5 -8 10 -19 10 -25z
m67 3 c-3 -7 -5 -2 -5 12 0 14 2 19 5 13 2 -7 2 -19 0 -25z m30 0 c-3 -7 -5
-2 -5 12 0 14 2 19 5 13 2 -7 2 -19 0 -25z m60 0 c-3 -7 -5 -2 -5 12 0 14 2
19 5 13 2 -7 2 -19 0 -25z m202 4 c0 -11 -2 -13 -6 -4 -4 10 -8 10 -21 0 -14
-12 -14 -11 -2 9 15 24 30 21 29 -5z m167 9 c0 -11 -4 -17 -8 -15 -4 3 -8 12
-8 20 0 8 4 14 8 14 4 0 8 -9 8 -19z m28 -11 c-6 -6 -10 -3 -10 10 0 13 4 16
10 10 7 -7 7 -13 0 -20z m-198 -97 c-8 -8 -12 -3 -21 27 l-7 25 17 -23 c9 -13
14 -26 11 -29z m64 22 c0 -14 -4 -25 -8 -25 -7 0 -8 31 -3 48 4 11 11 -3 11
-23z m119 -15 c0 -10 -3 -8 -9 5 -12 27 -12 43 0 25 5 -8 9 -22 9 -30z m-492
-2 c-3 -7 -5 -2 -5 12 0 14 2 19 5 13 2 -7 2 -19 0 -25z m30 0 c-3 -7 -5 -2
-5 12 0 14 2 19 5 13 2 -7 2 -19 0 -25z m68 12 c10 -11 14 -20 9 -20 -5 0 -15
9 -22 20 -7 11 -11 20 -9 20 2 0 12 -9 22 -20z m58 0 c3 -11 1 -18 -4 -14 -5
3 -9 12 -9 20 0 20 7 17 13 -6z m74 -12 c-3 -7 -5 -2 -5 12 0 14 2 19 5 13 2
-7 2 -19 0 -25z m-230 -85 c-3 -10 -5 -4 -5 12 0 17 2 24 5 18 2 -7 2 -21 0
-30z m322 -3 c0 -10 -3 -8 -9 5 -12 27 -12 43 0 25 5 -8 9 -22 9 -30z m58 3
c-3 -10 -5 -4 -5 12 0 17 2 24 5 18 2 -7 2 -21 0 -30z m70 0 c-3 -10 -5 -4 -5
12 0 17 2 24 5 18 2 -7 2 -21 0 -30z m-395 -5 c-9 -9 -12 -7 -12 12 0 19 3 21
12 12 9 -9 9 -15 0 -24z m65 0 c-3 -7 -5 -2 -5 12 0 14 2 19 5 13 2 -7 2 -19
0 -25z m82 -2 c-3 -3 -11 5 -18 17 -13 21 -12 21 5 5 10 -10 16 -20 13 -22z
m61 24 c0 -5 -2 -10 -4 -10 -3 0 -8 5 -11 10 -3 6 -1 10 4 10 6 0 11 -4 11
-10z"/>
</g>
</svg>
